<svg xmlns="http://www.w3.org/2000/svg" id="canvas" viewBox="228.785 286.388 1030.401 128.263"><path d="M 233.95,332.39 C 233.50 333.17, 233.41 334.00, 233.28 336.20 C 233.14 338.39, 233.21 339.78, 233.28 343.36 C 233.36 346.94, 233.68 349.39, 233.64 354.12 C 233.60 358.85, 233.35 361.76, 233.08 367.01 C 232.81 372.26, 232.50 375.29, 232.27 380.37 C 232.04 385.45, 231.99 388.01, 231.93 392.43 C 231.87 396.84, 231.62 399.09, 231.96 402.43 C 232.30 405.77, 232.53 407.28, 233.65 409.12 C 234.76 410.97, 235.77 411.63, 237.53 411.65 C 239.29 411.67, 240.48 411.20, 242.45 409.23 C 244.42 407.26, 245.15 405.38, 247.37 401.80 C 249.59 398.22, 250.95 395.79, 253.54 391.34 C 256.13 386.90, 257.74 384.01, 260.33 379.57 C 262.91 375.14, 264.24 372.84, 266.47 369.18 C 268.69 365.52, 269.92 363.96, 271.46 361.28 C 273.01 358.59, 273.50 357.32, 274.21 355.75 C 274.92 354.18, 274.75 353.75, 275.01 353.43 C 275.26 353.11, 275.00 353.48, 275.48 354.16 C 275.97 354.83, 276.09 355.75, 277.44 356.80 C 278.79 357.85, 279.87 358.70, 282.23 359.41 C 284.60 360.12, 286.11 360.35, 289.27 360.36 C 292.44 360.37, 294.21 360.14, 298.06 359.44 C 301.90 358.74, 304.25 358.22, 308.49 356.87 C 312.73 355.52, 315.07 354.59, 319.26 352.69 C 323.45 350.79, 325.74 349.59, 329.43 347.37 C 333.12 345.16, 335.12 343.89, 337.71 341.62 C 340.31 339.34, 341.42 338.13, 342.41 335.99 C 343.40 333.85, 343.39 332.50, 342.67 330.93 C 341.95 329.36, 341.05 328.49, 338.82 328.14 C 336.59 327.80, 334.76 327.92, 331.53 329.21 C 328.30 330.51, 326.30 331.87, 322.68 334.62 C 319.05 337.37, 317.00 339.23, 313.39 342.95 C 309.78 346.68, 307.62 348.92, 304.64 353.23 C 301.66 357.54, 300.22 360.17, 298.48 364.48 C 296.75 368.80, 296.08 371.13, 295.97 374.81 C 295.87 378.50, 296.33 380.30, 297.97 382.91 C 299.61 385.51, 300.94 386.58, 304.18 387.83 C 307.42 389.08, 309.68 389.24, 314.18 389.17 C 318.68 389.10, 321.35 388.71, 326.67 387.47 C 331.99 386.22, 334.97 385.14, 340.78 382.95 C 346.60 380.75, 349.92 379.17, 355.74 376.49 C 361.56 373.81, 364.59 372.28, 369.90 369.54 C 375.21 366.80, 377.84 365.27, 382.29 362.79 C 386.74 360.30, 388.94 359.15, 392.17 357.14 C 395.39 355.12, 396.82 354.37, 398.41 352.73 C 400.01 351.09, 400.23 350.22, 400.13 348.94 C 400.04 347.66, 399.51 346.88, 397.94 346.32 C 396.38 345.77, 394.99 345.30, 392.31 346.14 C 389.63 346.99, 387.98 348.18, 384.54 350.55 C 381.11 352.93, 379.11 354.52, 375.15 358.03 C 371.19 361.54, 368.78 363.92, 364.75 368.11 C 360.72 372.30, 358.44 374.89, 355.00 378.96 C 351.56 383.02, 349.71 385.16, 347.54 388.45 C 345.36 391.73, 344.50 393.25, 344.12 395.39 C 343.74 397.53, 344.33 398.42, 345.64 399.14 C 346.94 399.86, 348.23 400.13, 350.64 399.01 C 353.05 397.89, 354.47 396.53, 357.68 393.55 C 360.89 390.58, 362.80 388.50, 366.68 384.14 C 370.57 379.79, 372.81 377.09, 377.08 371.79 C 381.35 366.49, 383.74 363.51, 388.04 357.64 C 392.34 351.76, 394.57 348.48, 398.60 342.40 C 402.62 336.33, 404.63 333.05, 408.16 327.26 C 411.68 321.47, 413.39 318.33, 416.22 313.45 C 419.05 308.57, 420.51 306.39, 422.32 302.86 C 424.13 299.33, 424.91 297.64, 425.27 295.81 C 425.62 293.99, 425.13 293.27, 424.07 293.73 C 423.01 294.20, 421.87 295.16, 419.97 298.13 C 418.07 301.11, 416.95 303.67, 414.56 308.61 C 412.17 313.55, 410.68 316.82, 408.02 322.84 C 405.36 328.86, 403.67 332.44, 401.27 338.72 C 398.86 345.00, 397.57 348.35, 395.98 354.24 C 394.39 360.12, 393.86 363.15, 393.31 368.15 C 392.77 373.16, 392.66 375.45, 393.26 379.25 C 393.87 383.05, 394.39 384.73, 396.34 387.16 C 398.29 389.59, 399.92 390.55, 403.01 391.41 C 406.10 392.28, 408.01 392.12, 411.79 391.48 C 415.56 390.84, 417.60 389.96, 421.89 388.21 C 426.17 386.46, 428.71 385.31, 433.22 382.73 C 437.73 380.16, 440.11 378.44, 444.43 375.32 C 448.75 372.20, 450.89 370.22, 454.81 367.11 C 458.73 364.01, 460.86 362.44, 464.04 359.80 C 467.22 357.16, 468.75 356.01, 470.70 353.90 C 472.66 351.80, 473.14 350.81, 473.81 349.27 C 474.48 347.72, 474.49 347.21, 474.05 346.19 C 473.61 345.17, 472.94 344.55, 471.62 344.18 C 470.31 343.81, 469.28 343.81, 467.47 344.36 C 465.67 344.90, 464.70 345.33, 462.59 346.89 C 460.48 348.45, 459.42 349.63, 456.92 352.16 C 454.42 354.69, 452.75 356.25, 450.10 359.53 C 447.45 362.80, 445.93 364.88, 443.67 368.53 C 441.41 372.18, 440.29 374.39, 438.79 377.78 C 437.29 381.16, 436.46 382.76, 436.15 385.48 C 435.83 388.19, 436.10 389.58, 437.23 391.34 C 438.35 393.10, 439.62 393.84, 441.78 394.27 C 443.95 394.71, 445.37 394.54, 448.06 393.50 C 450.76 392.46, 452.24 391.43, 455.27 389.08 C 458.29 386.72, 460.05 385.05, 463.18 381.73 C 466.31 378.41, 467.93 376.20, 470.92 372.49 C 473.92 368.77, 475.86 366.37, 478.15 363.14 C 480.44 359.90, 481.55 358.14, 482.38 356.30 C 483.22 354.46, 483.00 353.82, 482.33 353.95 C 481.66 354.08, 480.37 354.87, 479.03 356.96 C 477.69 359.05, 476.79 361.20, 475.64 364.39 C 474.50 367.57, 473.58 369.83, 473.31 372.87 C 473.04 375.92, 473.32 377.54, 474.30 379.63 C 475.29 381.71, 476.17 382.55, 478.23 383.29 C 480.30 384.03, 481.78 384.12, 484.62 383.32 C 487.46 382.51, 489.09 381.37, 492.44 379.27 C 495.80 377.17, 497.64 375.72, 501.39 372.81 C 505.14 369.91, 507.43 367.94, 511.19 364.74 C 514.94 361.55, 516.90 359.60, 520.16 356.83 C 523.43 354.07, 525.35 352.70, 527.50 350.90 C 529.66 349.10, 530.45 348.25, 530.95 347.83 C 531.45 347.41, 530.88 347.62, 530.02 348.82 C 529.15 350.02, 528.06 351.26, 526.61 353.84 C 525.17 356.43, 524.33 358.64, 522.79 361.74 C 521.25 364.84, 520.00 366.59, 518.91 369.35 C 517.81 372.10, 517.30 373.50, 517.32 375.50 C 517.34 377.49, 517.72 378.51, 519.00 379.31 C 520.28 380.12, 521.43 380.20, 523.74 379.54 C 526.04 378.88, 527.41 377.97, 530.51 376.02 C 533.61 374.07, 535.54 372.43, 539.25 369.79 C 542.96 367.14, 545.09 365.37, 549.08 362.81 C 553.06 360.24, 555.55 358.84, 559.16 356.96 C 562.77 355.09, 564.86 354.38, 567.13 353.42 C 569.40 352.46, 569.94 351.96, 570.52 352.15 C 571.09 352.33, 570.71 352.78, 570.01 354.35 C 569.32 355.92, 568.35 357.28, 567.03 359.99 C 565.71 362.70, 564.85 364.77, 563.40 367.91 C 561.96 371.05, 560.78 372.81, 559.81 375.71 C 558.85 378.60, 558.41 380.18, 558.58 382.36 C 558.74 384.54, 559.19 385.54, 560.62 386.61 C 562.06 387.68, 563.17 388.28, 565.73 387.72 C 568.29 387.17, 570.03 386.09, 573.40 383.84 C 576.78 381.58, 578.56 379.98, 582.60 376.47 C 586.64 372.96, 588.95 370.74, 593.61 366.30 C 598.27 361.85, 600.92 359.27, 605.89 354.25 C 610.86 349.22, 613.39 346.46, 618.45 341.18 C 623.51 335.90, 626.33 333.06, 631.20 327.84 C 636.07 322.61, 638.61 319.78, 642.78 315.06 C 646.96 310.35, 648.92 308.02, 652.08 304.27 C 655.24 300.51, 656.74 298.92, 658.58 296.30 C 660.43 293.68, 660.94 292.56, 661.30 291.18 C 661.66 289.80, 661.34 289.30, 660.38 289.40 C 659.43 289.50, 658.24 289.72, 656.52 291.67 C 654.81 293.62, 653.99 295.39, 651.81 299.15 C 649.63 302.91, 648.36 305.43, 645.62 310.46 C 642.89 315.48, 641.15 318.46, 638.14 324.28 C 635.13 330.10, 633.52 333.38, 630.58 339.55 C 627.64 345.72, 626.16 349.28, 623.45 355.13 C 620.73 360.98, 619.28 363.95, 617.02 368.77 C 614.75 373.60, 613.74 375.73, 612.12 379.27 C 610.50 382.81, 609.63 384.45, 608.91 386.47 C 608.18 388.49, 608.41 389.25, 608.49 389.36 C 608.57 389.48, 609.08 388.78, 609.31 387.04 C 609.54 385.29, 609.96 383.61, 609.64 380.63 C 609.33 377.66, 608.85 375.41, 607.73 372.16 C 606.60 368.91, 605.64 366.89, 604.02 364.38 C 602.40 361.86, 601.42 360.91, 599.63 359.58 C 597.85 358.25, 596.77 357.77, 595.10 357.73 C 593.43 357.68, 592.12 358.21, 591.27 359.35 C 590.42 360.50, 590.17 361.86, 590.86 363.45 C 591.55 365.05, 592.43 366.15, 594.72 367.34 C 597.01 368.53, 598.57 368.97, 602.31 369.39 C 606.06 369.81, 608.47 369.77, 613.43 369.44 C 618.39 369.12, 621.37 368.78, 627.11 367.76 C 632.85 366.74, 636.13 365.90, 642.14 364.35 C 648.14 362.81, 651.42 361.70, 657.14 360.03 C 662.86 358.35, 665.76 357.47, 670.75 355.98 C 675.75 354.50, 678.32 353.74, 682.11 352.61 C 685.90 351.48, 687.46 351.17, 689.71 350.33 C 691.96 349.49, 692.70 348.98, 693.37 348.39 C 694.04 347.81, 693.94 347.51, 693.06 347.41 C 692.19 347.31, 691.32 347.36, 688.98 347.89 C 686.63 348.43, 685.11 348.89, 681.34 350.09 C 677.56 351.29, 675.06 352.30, 670.11 353.90 C 665.16 355.51, 662.27 356.41, 656.57 358.11 C 650.88 359.80, 647.60 360.90, 641.64 362.38 C 635.67 363.87, 632.40 364.67, 626.74 365.54 C 621.08 366.40, 618.10 366.66, 613.32 366.71 C 608.54 366.76, 606.21 366.41, 602.84 365.79 C 599.48 365.16, 598.38 364.38, 596.50 363.59 C 594.62 362.80, 594.11 362.39, 593.42 361.82 C 592.74 361.26, 592.80 361.05, 593.07 360.77 C 593.34 360.50, 593.90 360.20, 594.77 360.46 C 595.65 360.72, 596.33 360.85, 597.44 362.07 C 598.54 363.29, 599.11 364.26, 600.30 366.56 C 601.50 368.85, 602.54 370.59, 603.43 373.55 C 604.31 376.51, 604.18 378.58, 604.74 381.37 C 605.29 384.17, 605.43 385.76, 606.19 387.51 C 606.96 389.26, 607.51 390.10, 608.55 390.13 C 609.60 390.16, 610.22 389.64, 611.40 387.67 C 612.59 385.70, 612.98 383.91, 614.48 380.30 C 615.98 376.69, 616.76 374.50, 618.89 369.62 C 621.02 364.74, 622.46 361.76, 625.13 355.90 C 627.79 350.04, 629.27 346.47, 632.22 340.33 C 635.17 334.19, 636.79 330.94, 639.89 325.21 C 642.99 319.47, 644.78 316.52, 647.73 311.67 C 650.68 306.81, 652.25 304.46, 654.65 300.93 C 657.05 297.41, 658.44 296.17, 659.73 294.03 C 661.03 291.88, 661.13 290.97, 661.12 290.20 C 661.11 289.44, 660.66 289.33, 659.68 290.21 C 658.69 291.09, 658.06 292.05, 656.20 294.59 C 654.35 297.13, 653.36 299.06, 650.40 302.92 C 647.45 306.78, 645.51 309.12, 641.42 313.88 C 637.34 318.63, 634.81 321.48, 629.98 326.71 C 625.15 331.94, 622.33 334.78, 617.26 340.04 C 612.20 345.30, 609.65 348.05, 604.65 353.00 C 599.64 357.96, 596.96 360.52, 592.23 364.82 C 587.50 369.12, 585.12 371.28, 580.99 374.52 C 576.87 377.76, 574.86 379.05, 571.61 381.01 C 568.35 382.97, 566.68 383.54, 564.72 384.32 C 562.77 385.10, 562.44 385.25, 561.81 384.90 C 561.19 384.54, 561.22 384.08, 561.61 382.55 C 561.99 381.01, 562.61 379.78, 563.74 377.21 C 564.86 374.64, 565.75 372.79, 567.23 369.71 C 568.71 366.62, 569.99 364.74, 571.14 361.79 C 572.29 358.83, 572.95 357.14, 572.99 354.93 C 573.02 352.72, 572.70 351.66, 571.31 350.74 C 569.93 349.81, 568.78 349.59, 566.07 350.31 C 563.36 351.04, 561.47 352.33, 557.77 354.36 C 554.07 356.39, 551.63 357.89, 547.58 360.47 C 543.53 363.04, 541.33 364.77, 537.51 367.22 C 533.70 369.67, 531.53 370.94, 528.50 372.74 C 525.47 374.53, 524.11 375.18, 522.36 376.19 C 520.61 377.19, 520.20 377.81, 519.75 377.77 C 519.30 377.74, 519.49 377.32, 520.12 376.01 C 520.74 374.69, 521.54 373.65, 522.87 371.20 C 524.21 368.75, 525.22 366.84, 526.80 363.77 C 528.38 360.69, 529.65 358.67, 530.78 355.82 C 531.92 352.97, 532.45 351.39, 532.46 349.52 C 532.48 347.64, 532.24 346.72, 530.84 346.45 C 529.44 346.18, 527.97 346.49, 525.46 348.15 C 522.95 349.80, 521.50 351.80, 518.30 354.71 C 515.10 357.63, 513.20 359.56, 509.47 362.72 C 505.75 365.89, 503.42 367.80, 499.67 370.52 C 495.92 373.24, 493.96 374.53, 490.71 376.33 C 487.45 378.13, 485.75 378.67, 483.40 379.54 C 481.05 380.41, 480.21 380.86, 478.95 380.68 C 477.68 380.51, 477.29 380.09, 477.07 378.68 C 476.86 377.26, 477.22 376.17, 477.88 373.63 C 478.53 371.09, 479.37 369.01, 480.34 365.98 C 481.30 362.96, 482.19 360.88, 482.72 358.50 C 483.25 356.11, 483.49 354.82, 482.99 354.07 C 482.48 353.32, 481.68 353.31, 480.20 354.75 C 478.71 356.20, 477.85 358.09, 475.55 361.28 C 473.26 364.48, 471.62 367.06, 468.72 370.73 C 465.82 374.41, 464.17 376.56, 461.06 379.66 C 457.95 382.77, 456.09 384.22, 453.18 386.24 C 450.27 388.26, 448.72 388.76, 446.50 389.77 C 444.29 390.78, 443.52 391.24, 442.10 391.29 C 440.68 391.35, 439.95 391.11, 439.41 390.05 C 438.87 388.99, 438.94 388.19, 439.41 385.99 C 439.88 383.80, 440.38 382.25, 441.75 379.08 C 443.13 375.91, 444.10 373.64, 446.27 370.15 C 448.44 366.66, 449.93 364.66, 452.59 361.63 C 455.25 358.59, 457.04 357.19, 459.58 354.98 C 462.11 352.76, 463.36 351.90, 465.25 350.55 C 467.14 349.19, 467.78 348.91, 469.04 348.21 C 470.29 347.52, 470.80 347.36, 471.52 347.06 C 472.24 346.77, 472.62 346.56, 472.66 346.74 C 472.69 346.92, 472.59 346.99, 471.70 347.95 C 470.81 348.91, 470.10 349.59, 468.21 351.55 C 466.32 353.51, 465.24 355.02, 462.26 357.76 C 459.28 360.50, 457.16 362.12, 453.32 365.26 C 449.48 368.39, 447.34 370.37, 443.08 373.44 C 438.81 376.50, 436.45 378.15, 432.01 380.58 C 427.57 383.02, 425.02 384.07, 420.88 385.64 C 416.73 387.20, 414.70 387.89, 411.29 388.42 C 407.88 388.95, 406.37 388.93, 403.84 388.30 C 401.30 387.68, 400.25 387.17, 398.63 385.27 C 397.01 383.38, 396.39 382.20, 395.75 378.82 C 395.12 375.44, 395.03 373.18, 395.44 368.36 C 395.86 363.54, 396.31 360.52, 397.83 354.73 C 399.34 348.94, 400.60 345.60, 403.03 339.40 C 405.45 333.20, 407.15 329.63, 409.95 323.72 C 412.74 317.81, 414.41 314.64, 416.99 309.86 C 419.58 305.08, 421.28 302.90, 422.88 299.82 C 424.48 296.75, 424.91 295.45, 425.00 294.48 C 425.10 293.52, 424.34 293.58, 423.34 295.02 C 422.34 296.46, 421.79 298.20, 420.02 301.69 C 418.26 305.19, 417.17 307.55, 414.51 312.49 C 411.84 317.43, 410.14 320.57, 406.69 326.37 C 403.23 332.18, 401.24 335.45, 397.23 341.50 C 393.23 347.55, 391.00 350.81, 386.67 356.63 C 382.35 362.44, 379.95 365.40, 375.60 370.57 C 371.26 375.75, 368.95 378.40, 364.94 382.52 C 360.94 386.64, 358.78 388.47, 355.57 391.16 C 352.36 393.85, 350.79 394.64, 348.90 395.97 C 347.02 397.31, 346.64 397.81, 346.15 397.83 C 345.65 397.85, 345.69 397.66, 346.43 396.09 C 347.17 394.52, 347.77 393.10, 349.85 389.98 C 351.92 386.85, 353.50 384.52, 356.81 380.46 C 360.12 376.41, 362.40 373.81, 366.41 369.72 C 370.42 365.63, 372.86 363.28, 376.85 360.02 C 380.84 356.76, 382.98 355.38, 386.37 353.42 C 389.75 351.46, 391.52 351.15, 393.78 350.22 C 396.04 349.29, 396.69 349.06, 397.67 348.78 C 398.66 348.50, 398.93 348.46, 398.70 348.83 C 398.47 349.20, 398.14 349.42, 396.54 350.63 C 394.94 351.83, 393.76 352.80, 390.69 354.85 C 387.62 356.91, 385.54 358.31, 381.20 360.90 C 376.86 363.49, 374.25 365.04, 368.99 367.80 C 363.74 370.57, 360.72 372.09, 354.93 374.73 C 349.15 377.37, 345.82 378.93, 340.07 381.01 C 334.31 383.10, 331.34 384.08, 326.16 385.16 C 320.98 386.24, 318.35 386.43, 314.17 386.40 C 309.99 386.37, 308.00 386.01, 305.26 384.99 C 302.52 383.98, 301.76 383.34, 300.46 381.32 C 299.17 379.30, 298.70 378.07, 298.77 374.89 C 298.85 371.70, 299.27 369.47, 300.84 365.41 C 302.41 361.36, 303.76 358.74, 306.63 354.61 C 309.51 350.49, 311.65 348.27, 315.22 344.78 C 318.79 341.28, 320.93 339.54, 324.48 337.15 C 328.04 334.76, 330.15 334.00, 333.00 332.82 C 335.85 331.64, 337.15 331.47, 338.72 331.25 C 340.29 331.03, 340.62 331.05, 340.84 331.71 C 341.06 332.36, 340.87 333.04, 339.82 334.53 C 338.77 336.02, 337.94 337.08, 335.56 339.17 C 333.19 341.25, 331.43 342.76, 327.95 344.96 C 324.46 347.17, 322.20 348.37, 318.14 350.19 C 314.07 352.01, 311.76 352.88, 307.64 354.06 C 303.53 355.25, 301.20 355.68, 297.56 356.10 C 293.92 356.51, 292.23 356.38, 289.44 356.15 C 286.64 355.92, 285.54 355.56, 283.58 354.96 C 281.62 354.36, 281.01 353.74, 279.63 353.15 C 278.25 352.56, 277.79 352.22, 276.70 352.00 C 275.60 351.78, 275.13 351.59, 274.15 352.06 C 273.16 352.52, 272.86 352.80, 271.76 354.33 C 270.66 355.85, 270.19 356.99, 268.67 359.69 C 267.15 362.39, 266.28 364.12, 264.18 367.84 C 262.07 371.56, 260.74 373.88, 258.14 378.29 C 255.54 382.71, 253.88 385.57, 251.17 389.91 C 248.45 394.24, 246.88 396.60, 244.57 399.97 C 242.26 403.34, 241.07 404.82, 239.62 406.77 C 238.18 408.73, 238.07 409.49, 237.35 409.74 C 236.62 409.99, 236.45 409.56, 236.00 408.03 C 235.54 406.51, 235.38 405.24, 235.08 402.12 C 234.78 399.00, 234.60 396.75, 234.52 392.42 C 234.43 388.09, 234.45 385.53, 234.67 380.47 C 234.88 375.42, 235.20 372.42, 235.58 367.16 C 235.96 361.91, 236.30 358.98, 236.57 354.21 C 236.84 349.45, 236.91 346.97, 236.94 343.34 C 236.98 339.71, 237.03 338.29, 236.74 336.08 C 236.45 333.86, 236.06 333.01, 235.50 332.27 C 234.94 331.53, 234.39 331.60, 233.95 332.39" style="stroke: black; fill: black;"/><path d="M 795.64,301.79 C 794.95 302.30, 794.47 302.94, 793.63 304.83 C 792.80 306.72, 792.55 308.07, 791.46 311.24 C 790.38 314.42, 789.92 316.43, 788.19 320.72 C 786.47 325.01, 785.23 327.61, 782.84 332.68 C 780.45 337.76, 779.01 340.63, 776.23 346.09 C 773.46 351.55, 771.63 354.68, 768.96 359.99 C 766.29 365.29, 764.83 368.15, 762.89 372.62 C 760.95 377.09, 759.98 379.16, 759.26 382.34 C 758.53 385.51, 758.49 386.80, 759.27 388.49 C 760.05 390.18, 761.07 390.66, 763.16 390.80 C 765.25 390.95, 766.89 390.57, 769.73 389.23 C 772.58 387.88, 774.18 386.40, 777.37 384.08 C 780.56 381.75, 782.42 380.16, 785.69 377.60 C 788.96 375.05, 790.76 373.51, 793.73 371.32 C 796.70 369.13, 798.29 368.16, 800.54 366.66 C 802.79 365.16, 803.70 364.54, 804.99 363.81 C 806.27 363.09, 806.54 362.93, 806.97 363.05 C 807.39 363.17, 807.18 363.54, 807.11 364.40 C 807.03 365.26, 806.90 365.94, 806.59 367.36 C 806.28 368.77, 806.03 369.64, 805.56 371.46 C 805.09 373.27, 804.82 374.41, 804.25 376.43 C 803.69 378.45, 803.29 379.59, 802.74 381.56 C 802.19 383.53, 801.97 384.60, 801.50 386.28 C 801.03 387.96, 800.62 388.70, 800.40 389.96 C 800.18 391.23, 800.18 391.75, 800.39 392.62 C 800.61 393.48, 800.87 393.84, 801.50 394.29 C 802.12 394.73, 802.60 394.86, 803.50 394.82 C 804.40 394.78, 804.94 394.74, 806.01 394.09 C 807.08 393.43, 807.60 392.74, 808.86 391.54 C 810.12 390.34, 810.68 389.53, 812.30 388.08 C 813.93 386.62, 814.90 385.93, 816.97 384.26 C 819.04 382.60, 820.16 381.66, 822.64 379.75 C 825.12 377.84, 826.52 376.88, 829.39 374.71 C 832.25 372.54, 833.88 371.32, 836.97 368.90 C 840.07 366.47, 841.64 365.22, 844.86 362.59 C 848.09 359.96, 849.79 358.55, 853.11 355.75 C 856.42 352.96, 858.20 351.57, 861.43 348.61 C 864.66 345.65, 866.26 344.06, 869.25 340.95 C 872.24 337.84, 873.71 336.11, 876.37 333.05 C 879.03 329.98, 880.34 328.43, 882.57 325.63 C 884.80 322.82, 885.87 321.55, 887.52 319.04 C 889.17 316.54, 889.92 315.24, 890.81 313.10 C 891.70 310.96, 892.06 309.87, 891.94 308.35 C 891.83 306.83, 891.36 305.99, 890.21 305.48 C 889.07 304.97, 888.08 304.85, 886.22 305.80 C 884.36 306.75, 883.20 307.73, 880.92 310.24 C 878.64 312.76, 877.46 314.64, 874.81 318.39 C 872.17 322.13, 870.57 324.56, 867.70 328.99 C 864.82 333.41, 863.22 335.90, 860.43 340.49 C 857.63 345.08, 856.16 347.56, 853.71 351.93 C 851.26 356.31, 850.02 358.50, 848.17 362.35 C 846.32 366.20, 845.48 368.07, 844.47 371.20 C 843.46 374.33, 843.14 375.81, 843.11 378.00 C 843.08 380.20, 843.36 381.05, 844.31 382.19 C 845.25 383.32, 846.03 383.72, 847.83 383.66 C 849.64 383.59, 850.97 383.20, 853.34 381.87 C 855.71 380.53, 856.95 379.20, 859.69 376.99 C 862.43 374.77, 863.98 373.31, 867.04 370.78 C 870.09 368.24, 872.05 366.55, 874.95 364.33 C 877.85 362.11, 879.56 361.08, 881.55 359.67 C 883.54 358.26, 884.17 357.55, 884.89 357.27 C 885.60 356.99, 885.54 357.15, 885.13 358.25 C 884.72 359.36, 883.81 360.49, 882.83 362.80 C 881.85 365.10, 881.13 366.91, 880.24 369.79 C 879.34 372.67, 878.62 374.46, 878.35 377.19 C 878.09 379.91, 878.12 381.31, 878.92 383.42 C 879.71 385.54, 880.32 386.66, 882.34 387.78 C 884.35 388.90, 885.98 389.36, 888.99 389.02 C 892.01 388.67, 893.77 387.70, 897.42 386.04 C 901.06 384.37, 903.05 383.14, 907.22 380.69 C 911.39 378.25, 913.78 376.63, 918.25 373.82 C 922.73 371.00, 925.29 369.32, 929.59 366.60 C 933.89 363.89, 936.45 362.40, 939.76 360.23 C 943.06 358.07, 944.81 357.07, 946.12 355.77 C 947.43 354.47, 947.30 353.76, 946.30 353.73 C 945.30 353.69, 943.74 353.96, 941.11 355.58 C 938.49 357.20, 936.48 359.04, 933.18 361.83 C 929.88 364.63, 927.75 366.58, 924.62 369.55 C 921.49 372.53, 919.58 374.01, 917.54 376.70 C 915.50 379.39, 914.74 380.93, 914.41 383.01 C 914.08 385.09, 914.54 386.10, 915.89 387.09 C 917.25 388.07, 918.59 388.45, 921.19 387.94 C 923.79 387.44, 925.57 386.50, 928.89 384.56 C 932.22 382.62, 934.10 381.00, 937.83 378.25 C 941.55 375.50, 943.79 373.66, 947.53 370.81 C 951.27 367.96, 953.75 366.34, 956.54 364.01 C 959.34 361.69, 960.54 360.36, 961.51 359.18 C 962.48 358.00, 962.14 357.69, 961.41 358.10 C 960.67 358.52, 959.48 359.32, 957.84 361.24 C 956.20 363.17, 954.97 364.87, 953.22 367.73 C 951.47 370.58, 950.10 372.66, 949.08 375.54 C 948.06 378.41, 947.88 379.92, 948.12 382.09 C 948.35 384.26, 948.72 385.26, 950.26 386.39 C 951.81 387.52, 953.02 388.04, 955.83 387.74 C 958.64 387.43, 960.57 386.60, 964.29 384.87 C 968.02 383.14, 970.29 381.63, 974.47 379.09 C 978.65 376.54, 980.94 374.93, 985.20 372.15 C 989.45 369.36, 991.93 367.70, 995.73 365.16 C 999.54 362.62, 1001.76 361.32, 1004.22 359.46 C 1006.67 357.60, 1007.38 356.68, 1007.99 355.86 C 1008.61 355.05, 1008.26 354.78, 1007.30 355.39 C 1006.34 355.99, 1004.94 356.87, 1003.19 358.90 C 1001.43 360.92, 1000.11 362.66, 998.51 365.53 C 996.91 368.39, 996.13 370.33, 995.18 373.22 C 994.23 376.11, 993.86 377.61, 993.78 379.98 C 993.69 382.35, 993.77 383.42, 994.77 385.09 C 995.76 386.76, 996.71 387.66, 998.76 388.33 C 1000.80 388.99, 1002.26 388.95, 1005.01 388.41 C 1007.75 387.88, 1009.31 387.13, 1012.47 385.65 C 1015.63 384.18, 1017.61 383.09, 1020.81 381.03 C 1024.00 378.97, 1025.60 377.66, 1028.45 375.35 C 1031.31 373.04, 1032.79 371.70, 1035.07 369.49 C 1037.35 367.28, 1038.46 366.03, 1039.85 364.28 C 1041.24 362.54, 1041.56 361.77, 1042.02 360.76 C 1042.48 359.74, 1042.38 359.54, 1042.15 359.21 C 1041.91 358.89, 1041.25 358.75, 1040.86 359.14 C 1040.48 359.53, 1039.94 360.26, 1040.20 361.15 C 1040.46 362.03, 1040.94 362.84, 1042.16 363.54 C 1043.39 364.25, 1044.28 364.38, 1046.32 364.66 C 1048.35 364.93, 1049.64 365.03, 1052.34 364.91 C 1055.04 364.80, 1056.73 364.55, 1059.83 364.09 C 1062.93 363.62, 1064.70 363.17, 1067.84 362.58 C 1070.98 361.99, 1072.64 361.60, 1075.55 361.13 C 1078.45 360.66, 1079.84 360.51, 1082.35 360.24 C 1084.85 359.98, 1086.24 359.89, 1088.05 359.82 C 1089.86 359.76, 1090.59 359.72, 1091.40 359.91 C 1092.21 360.11, 1092.26 360.13, 1092.11 360.78 C 1091.97 361.44, 1091.56 361.95, 1090.68 363.21 C 1089.80 364.46, 1089.20 365.40, 1087.71 367.06 C 1086.21 368.72, 1085.22 369.69, 1083.18 371.50 C 1081.14 373.30, 1079.83 374.31, 1077.51 376.09 C 1075.19 377.86, 1073.85 378.87, 1071.58 380.36 C 1069.31 381.85, 1068.14 382.49, 1066.16 383.54 C 1064.18 384.58, 1063.09 385.01, 1061.70 385.59 C 1060.31 386.17, 1059.83 386.26, 1059.21 386.44 C 1058.59 386.61, 1058.45 386.62, 1058.60 386.47 C 1058.75 386.31, 1058.97 386.20, 1059.95 385.66 C 1060.93 385.12, 1061.50 384.90, 1063.48 383.79 C 1065.46 382.67, 1066.75 381.58, 1069.84 380.07 C 1072.92 378.56, 1074.95 377.77, 1078.91 376.25 C 1082.88 374.72, 1085.13 373.86, 1089.64 372.44 C 1094.15 371.01, 1096.67 370.34, 1101.48 369.11 C 1106.29 367.87, 1108.94 367.37, 1113.69 366.26 C 1118.44 365.14, 1120.84 364.50, 1125.23 363.53 C 1129.62 362.55, 1131.90 362.07, 1135.66 361.40 C 1139.42 360.73, 1141.22 360.68, 1144.03 360.17 C 1146.84 359.66, 1148.03 359.48, 1149.70 358.86 C 1151.37 358.25, 1151.93 357.86, 1152.39 357.09 C 1152.85 356.31, 1152.77 355.67, 1152.02 355.00 C 1151.27 354.32, 1150.41 353.84, 1148.64 353.70 C 1146.87 353.57, 1145.60 353.61, 1143.17 354.31 C 1140.73 355.01, 1139.36 355.76, 1136.49 357.20 C 1133.62 358.64, 1131.90 359.57, 1128.82 361.52 C 1125.75 363.46, 1123.99 364.68, 1121.10 366.91 C 1118.20 369.15, 1116.62 370.33, 1114.35 372.69 C 1112.08 375.04, 1110.92 376.39, 1109.73 378.69 C 1108.54 380.98, 1108.27 382.25, 1108.39 384.15 C 1108.51 386.04, 1108.95 387.00, 1110.33 388.16 C 1111.70 389.32, 1112.90 389.81, 1115.27 389.95 C 1117.64 390.09, 1119.14 389.81, 1122.18 388.87 C 1125.23 387.93, 1126.97 386.98, 1130.50 385.24 C 1134.04 383.51, 1136.13 382.29, 1139.84 380.19 C 1143.56 378.08, 1145.67 376.76, 1149.07 374.72 C 1152.47 372.69, 1154.57 371.70, 1156.85 370.02 C 1159.14 368.35, 1159.83 367.25, 1160.50 366.35 C 1161.18 365.45, 1160.91 365.21, 1160.23 365.53 C 1159.54 365.84, 1158.39 366.49, 1157.10 367.93 C 1155.81 369.36, 1154.74 370.61, 1153.78 372.72 C 1152.83 374.82, 1152.45 376.38, 1152.32 378.46 C 1152.20 380.55, 1152.31 381.71, 1153.16 383.14 C 1154.01 384.57, 1154.75 385.05, 1156.55 385.61 C 1158.36 386.17, 1159.58 386.34, 1162.18 385.94 C 1164.79 385.53, 1166.41 384.85, 1169.59 383.57 C 1172.78 382.29, 1174.54 381.24, 1178.12 379.53 C 1181.70 377.82, 1183.84 376.78, 1187.49 375.01 C 1191.13 373.23, 1193.21 372.13, 1196.35 370.66 C 1199.48 369.19, 1201.05 368.58, 1203.16 367.67 C 1205.27 366.75, 1206.14 366.28, 1206.90 366.08 C 1207.66 365.89, 1207.48 365.94, 1206.95 366.70 C 1206.42 367.46, 1205.48 368.19, 1204.25 369.89 C 1203.02 371.59, 1202.20 372.98, 1200.80 375.20 C 1199.40 377.42, 1198.30 378.83, 1197.25 380.98 C 1196.21 383.14, 1195.64 384.53, 1195.58 385.97 C 1195.52 387.41, 1195.88 388.06, 1196.95 388.20 C 1198.01 388.33, 1198.91 388.08, 1200.88 386.65 C 1202.86 385.22, 1204.01 383.66, 1206.84 381.04 C 1209.67 378.42, 1211.52 376.44, 1215.04 373.54 C 1218.55 370.65, 1220.66 369.08, 1224.43 366.57 C 1228.21 364.05, 1230.32 362.79, 1233.90 360.98 C 1237.49 359.17, 1239.27 358.53, 1242.35 357.52 C 1245.44 356.50, 1247.06 356.47, 1249.32 355.90 C 1251.58 355.33, 1252.35 355.04, 1253.65 354.67 C 1254.95 354.30, 1255.39 354.37, 1255.83 354.05 C 1256.27 353.73, 1256.33 353.43, 1255.85 353.08 C 1255.38 352.73, 1254.89 352.44, 1253.44 352.32 C 1251.98 352.21, 1251.02 352.06, 1248.59 352.50 C 1246.16 352.94, 1244.48 353.31, 1241.29 354.51 C 1238.10 355.72, 1236.30 356.56, 1232.63 358.51 C 1228.95 360.47, 1226.83 361.76, 1222.94 364.28 C 1219.04 366.81, 1216.89 368.37, 1213.15 371.13 C 1209.42 373.89, 1207.27 375.60, 1204.26 378.09 C 1201.25 380.58, 1199.68 381.79, 1198.10 383.58 C 1196.52 385.38, 1196.41 386.36, 1196.36 387.08 C 1196.32 387.79, 1196.86 387.82, 1197.88 387.14 C 1198.90 386.46, 1199.95 385.51, 1201.46 383.68 C 1202.97 381.86, 1204.07 380.35, 1205.44 378.01 C 1206.80 375.66, 1207.50 374.15, 1208.27 371.96 C 1209.04 369.76, 1209.49 368.58, 1209.28 367.01 C 1209.07 365.45, 1208.66 364.67, 1207.20 364.13 C 1205.74 363.59, 1204.45 363.63, 1201.98 364.32 C 1199.52 365.02, 1198.06 366.04, 1194.88 367.61 C 1191.70 369.18, 1189.73 370.39, 1186.10 372.16 C 1182.47 373.93, 1180.31 374.94, 1176.73 376.46 C 1173.15 377.98, 1171.27 378.75, 1168.19 379.78 C 1165.11 380.81, 1163.56 381.07, 1161.33 381.62 C 1159.10 382.16, 1158.22 382.44, 1157.05 382.52 C 1155.87 382.61, 1155.58 382.66, 1155.45 382.05 C 1155.33 381.43, 1155.71 380.81, 1156.41 379.44 C 1157.11 378.06, 1158.01 377.03, 1158.94 375.17 C 1159.87 373.31, 1160.51 371.99, 1161.06 370.14 C 1161.61 368.29, 1161.98 367.04, 1161.69 365.92 C 1161.40 364.81, 1160.99 364.41, 1159.59 364.58 C 1158.19 364.76, 1157.14 365.30, 1154.69 366.79 C 1152.25 368.27, 1150.65 369.87, 1147.38 372.01 C 1144.10 374.15, 1141.99 375.46, 1138.33 377.47 C 1134.66 379.49, 1132.53 380.62, 1129.06 382.08 C 1125.59 383.55, 1123.74 383.99, 1120.96 384.79 C 1118.19 385.59, 1117.00 385.86, 1115.17 386.10 C 1113.35 386.35, 1112.64 386.40, 1111.82 386.03 C 1111.00 385.65, 1110.88 385.33, 1111.09 384.23 C 1111.29 383.12, 1111.67 382.30, 1112.85 380.50 C 1114.03 378.70, 1114.93 377.40, 1117.00 375.24 C 1119.08 373.08, 1120.49 371.79, 1123.23 369.68 C 1125.97 367.56, 1127.71 366.38, 1130.72 364.67 C 1133.73 362.96, 1135.51 362.24, 1138.27 361.12 C 1141.03 360.01, 1142.37 359.71, 1144.53 359.11 C 1146.69 358.50, 1147.64 358.54, 1149.07 358.09 C 1150.50 357.64, 1151.16 357.30, 1151.68 356.86 C 1152.20 356.41, 1152.21 356.06, 1151.68 355.87 C 1151.15 355.67, 1150.67 355.74, 1149.01 355.90 C 1147.35 356.05, 1146.16 356.12, 1143.37 356.67 C 1140.59 357.21, 1138.82 357.72, 1135.08 358.60 C 1131.34 359.48, 1129.05 360.00, 1124.66 361.07 C 1120.27 362.13, 1117.89 362.79, 1113.13 363.92 C 1108.38 365.06, 1105.74 365.55, 1100.89 366.75 C 1096.04 367.96, 1093.48 368.61, 1088.88 369.93 C 1084.29 371.25, 1082.02 372.04, 1077.90 373.34 C 1073.77 374.65, 1071.63 375.17, 1068.27 376.46 C 1064.91 377.75, 1063.25 378.44, 1061.09 379.80 C 1058.93 381.16, 1058.35 381.88, 1057.47 383.25 C 1056.59 384.62, 1056.43 385.54, 1056.71 386.65 C 1056.98 387.77, 1057.65 388.39, 1058.84 388.84 C 1060.03 389.30, 1060.86 389.28, 1062.67 388.93 C 1064.48 388.59, 1065.65 388.11, 1067.89 387.10 C 1070.13 386.10, 1071.44 385.44, 1073.87 383.91 C 1076.29 382.39, 1077.56 381.25, 1080.02 379.47 C 1082.49 377.68, 1083.92 376.87, 1086.18 375.01 C 1088.44 373.15, 1089.70 372.16, 1091.33 370.16 C 1092.96 368.15, 1093.67 366.91, 1094.34 364.98 C 1095.00 363.06, 1095.00 362.01, 1094.65 360.54 C 1094.30 359.06, 1093.86 358.47, 1092.58 357.60 C 1091.30 356.72, 1090.36 356.43, 1088.24 356.17 C 1086.12 355.90, 1084.64 356.05, 1081.97 356.27 C 1079.31 356.49, 1077.88 356.79, 1074.92 357.28 C 1071.96 357.77, 1070.28 358.21, 1067.16 358.71 C 1064.04 359.22, 1062.31 359.55, 1059.33 359.80 C 1056.34 360.05, 1054.74 359.96, 1052.23 359.97 C 1049.72 359.97, 1048.51 359.90, 1046.77 359.82 C 1045.04 359.74, 1044.35 359.57, 1043.55 359.57 C 1042.75 359.56, 1042.95 359.78, 1042.77 359.81 C 1042.58 359.83, 1042.82 359.90, 1042.61 359.68 C 1042.41 359.46, 1042.27 358.83, 1041.76 358.72 C 1041.26 358.61, 1041.02 358.50, 1040.09 359.13 C 1039.16 359.76, 1038.63 360.31, 1037.11 361.86 C 1035.59 363.41, 1034.63 364.69, 1032.47 366.86 C 1030.31 369.04, 1029.02 370.49, 1026.31 372.73 C 1023.61 374.97, 1022.04 376.20, 1018.95 378.05 C 1015.86 379.91, 1013.84 380.77, 1010.86 382.01 C 1007.88 383.25, 1006.32 383.62, 1004.04 384.25 C 1001.75 384.89, 1000.83 385.29, 999.45 385.19 C 998.06 385.10, 997.57 384.75, 997.13 383.79 C 996.68 382.84, 996.79 382.20, 997.22 380.41 C 997.65 378.61, 998.19 377.28, 999.30 374.80 C 1000.41 372.32, 1001.20 370.63, 1002.78 368.01 C 1004.37 365.38, 1005.96 364.02, 1007.21 361.66 C 1008.47 359.31, 1009.03 357.67, 1009.05 356.22 C 1009.07 354.77, 1008.68 354.32, 1007.33 354.41 C 1005.97 354.50, 1004.89 354.98, 1002.27 356.68 C 999.64 358.39, 997.89 360.28, 994.19 362.95 C 990.50 365.61, 988.04 367.28, 983.81 370.02 C 979.58 372.75, 977.22 374.31, 973.04 376.65 C 968.86 378.98, 966.48 380.24, 962.91 381.71 C 959.34 383.17, 957.48 383.42, 955.20 383.97 C 952.91 384.52, 952.29 384.83, 951.47 384.48 C 950.64 384.12, 950.71 383.61, 951.08 382.20 C 951.45 380.78, 952.02 379.77, 953.30 377.39 C 954.59 375.01, 955.86 373.08, 957.50 370.31 C 959.15 367.54, 960.49 365.91, 961.53 363.54 C 962.57 361.18, 962.95 359.72, 962.70 358.48 C 962.45 357.25, 961.93 356.77, 960.28 357.36 C 958.63 357.94, 957.36 359.17, 954.46 361.41 C 951.56 363.64, 949.45 365.66, 945.78 368.54 C 942.10 371.41, 939.80 373.21, 936.07 375.77 C 932.33 378.33, 930.27 379.63, 927.09 381.34 C 923.90 383.05, 922.22 383.50, 920.16 384.33 C 918.09 385.16, 917.43 385.60, 916.77 385.48 C 916.11 385.36, 916.16 385.07, 916.86 383.75 C 917.55 382.43, 918.25 381.23, 920.25 378.87 C 922.25 376.51, 923.81 374.78, 926.87 371.95 C 929.93 369.12, 932.23 367.36, 935.55 364.72 C 938.87 362.08, 941.18 360.78, 943.47 358.75 C 945.75 356.73, 946.67 355.61, 946.96 354.62 C 947.25 353.63, 946.67 353.20, 944.90 353.82 C 943.14 354.45, 941.47 355.59, 938.14 357.73 C 934.81 359.87, 932.48 361.73, 928.25 364.53 C 924.01 367.33, 921.44 368.99, 916.96 371.74 C 912.49 374.50, 910.04 376.06, 905.87 378.31 C 901.71 380.55, 899.61 381.62, 896.12 382.97 C 892.63 384.32, 890.93 384.61, 888.43 385.03 C 885.94 385.46, 884.95 385.58, 883.63 385.09 C 882.32 384.60, 882.09 384.01, 881.87 382.58 C 881.65 381.15, 881.90 380.18, 882.53 377.94 C 883.15 375.69, 884.03 374.12, 885.00 371.37 C 885.98 368.63, 886.86 366.83, 887.40 364.19 C 887.93 361.55, 888.18 359.94, 887.68 358.18 C 887.19 356.42, 886.54 355.72, 884.93 355.38 C 883.32 355.05, 882.07 355.27, 879.65 356.51 C 877.23 357.74, 875.77 359.25, 872.82 361.57 C 869.86 363.89, 867.99 365.66, 864.88 368.10 C 861.77 370.55, 860.07 371.82, 857.27 373.80 C 854.48 375.78, 852.94 376.57, 850.91 377.99 C 848.89 379.41, 848.17 380.26, 847.16 380.88 C 846.14 381.51, 846.05 381.64, 845.84 381.11 C 845.62 380.59, 845.76 380.07, 846.09 378.28 C 846.43 376.48, 846.61 375.11, 847.50 372.14 C 848.39 369.17, 848.88 367.24, 850.53 363.42 C 852.18 359.61, 853.38 357.41, 855.75 353.06 C 858.13 348.72, 859.59 346.24, 862.39 341.70 C 865.20 337.17, 866.81 334.68, 869.79 330.39 C 872.77 326.10, 874.44 323.72, 877.27 320.25 C 880.11 316.79, 881.74 315.36, 883.95 313.06 C 886.16 310.76, 887.15 309.96, 888.32 308.75 C 889.50 307.54, 889.59 307.16, 889.81 307.01 C 890.02 306.86, 889.84 307.09, 889.39 308.01 C 888.94 308.92, 888.54 309.74, 887.56 311.56 C 886.58 313.38, 885.97 314.67, 884.48 317.11 C 882.99 319.55, 882.16 320.93, 880.11 323.75 C 878.05 326.57, 876.78 328.15, 874.22 331.22 C 871.66 334.28, 870.23 336.01, 867.31 339.10 C 864.39 342.18, 862.82 343.73, 859.63 346.65 C 856.44 349.56, 854.68 350.93, 851.37 353.67 C 848.06 356.41, 846.33 357.81, 843.08 360.36 C 839.83 362.92, 838.25 364.13, 835.11 366.45 C 831.97 368.77, 830.34 369.92, 827.39 371.95 C 824.44 373.98, 823.00 374.85, 820.38 376.61 C 817.76 378.36, 816.51 379.14, 814.29 380.72 C 812.07 382.31, 811.04 383.08, 809.27 384.54 C 807.49 386.00, 806.66 386.79, 805.43 388.02 C 804.19 389.25, 803.73 389.85, 803.08 390.68 C 802.43 391.50, 802.34 391.65, 802.18 392.13 C 802.02 392.61, 802.14 392.96, 802.28 393.09 C 802.42 393.21, 802.58 393.18, 802.88 392.76 C 803.17 392.35, 803.25 392.05, 803.75 391.01 C 804.25 389.97, 804.75 389.20, 805.38 387.56 C 806.01 385.92, 806.25 384.78, 806.89 382.81 C 807.53 380.85, 807.93 379.77, 808.58 377.73 C 809.24 375.68, 809.67 374.59, 810.14 372.59 C 810.62 370.59, 811.00 369.54, 810.97 367.74 C 810.94 365.94, 810.67 364.91, 810.01 363.61 C 809.34 362.31, 808.86 361.73, 807.65 361.23 C 806.44 360.74, 805.80 360.68, 803.97 361.13 C 802.14 361.59, 800.95 361.99, 798.51 363.51 C 796.07 365.03, 794.73 366.43, 791.77 368.74 C 788.82 371.05, 787.04 372.59, 783.75 375.06 C 780.45 377.53, 778.49 379.00, 775.30 381.10 C 772.12 383.20, 770.30 384.14, 767.83 385.57 C 765.35 387.00, 764.29 387.78, 762.93 388.24 C 761.57 388.70, 761.20 388.91, 761.03 387.87 C 760.87 386.84, 761.28 385.92, 762.08 383.05 C 762.88 380.18, 763.31 377.94, 765.05 373.51 C 766.80 369.09, 768.21 366.21, 770.82 360.91 C 773.43 355.62, 775.26 352.48, 778.08 347.04 C 780.91 341.60, 782.37 338.74, 784.93 333.71 C 787.48 328.67, 788.83 326.12, 790.85 321.89 C 792.87 317.65, 793.82 315.74, 795.04 312.54 C 796.26 309.34, 796.54 307.93, 796.96 305.88 C 797.37 303.82, 797.36 303.08, 797.10 302.26 C 796.84 301.44, 796.34 301.28, 795.64 301.79" style="stroke: black; fill: black;"/></svg>